<svg xmlns="http://www.w3.org/2000/svg" width="169.411" height="91.299" viewBox="0 0 169.411 91.299">
  <g id="Grupo_797" data-name="Grupo 797" transform="translate(-126.609 -294.783)">
    <path id="Trazado_3074" data-name="Trazado 3074" d="M420.261,354.144a11.551,11.551,0,0,0-1.629.386,14.387,14.387,0,0,0-1.845.841v1.5a32.2,32.2,0,0,1-.394,3.422,14.564,14.564,0,0,0,1.657-2.2c.636-1.1,2.212-3.942,2.212-3.942m-4.819,2.016a32.169,32.169,0,0,0-6.289,3.816c-3.95,2.894-6.155,9.209-6.155,9.209a27,27,0,0,0,7.678-3.422c4.157-2.634,4.766-9.6,4.766-9.6m-3.231,42.747h-5.136s-7.882-7.411-7.747-21.052c.168-17.093,16.016-23.367,16.016-23.367a9.451,9.451,0,0,0-2.542-6.527,23.982,23.982,0,0,0-5.75-4.044,9.245,9.245,0,0,1,7.835,4.88c1.815,3.477,1.789,5.144,1.789,5.144a10.707,10.707,0,0,1,2.3-.836c1.475-.39,1.735-.438,1.735-.438s4.724-14.221-3.36-23.905-14.819-11.452-21.808-11.367c-6.393.076-6.877.849-6.913.98l.07-.475a21.267,21.267,0,0,1,11.978-1.431c6.652,1.178,21.163,5.415,23.915,26.778a21.729,21.729,0,0,1-.788,9.267s5.589-.679,10.051.921a38.829,38.829,0,0,1,8.572,4.992c.8.445,1.28.735,1.28.735l.341.5s-.624-.5-1.621-1.236c-2.44-1.366-7.818-4.19-11.184-4.57a51.315,51.315,0,0,0-7.663-.336s-2.021,8-8.84,12.715a47.713,47.713,0,0,1-12.884,6.4s-1.264,5.3-.337,9.43a47.573,47.573,0,0,0,2.105,6.99s-.573-13.176,9.285-18.1c7.689-3.845,14.893.4,14.893.4l-1.144-.07s-1.91-1.3-7.5-.933-11.913,4.644-13.472,11.319-1.016,5.1-1.016,5.1,2.711-4.928,7.579-4.867c4.724.06,6.909,5.288,6.909,5.288s-3.133-4.21-6.8-4.149-6.922,1.8-6.737,6.737,6.585,9.134,6.585,9.134" transform="translate(-157.177 -12.825)" fill="#473d36" fill-rule="evenodd"/>
    <path id="Trazado_3075" data-name="Trazado 3075" d="M406.315,369.622a1.242,1.242,0,1,0,1.242-1.242,1.241,1.241,0,0,0-1.242,1.242m1.179-6.99a7.888,7.888,0,0,0-.569,2.632,6.059,6.059,0,0,0,.569,2.632,6.336,6.336,0,0,0,.652-2.842,7.138,7.138,0,0,0-.652-2.421m0,8.8a7.886,7.886,0,0,0-.569,2.631,6.06,6.06,0,0,0,.569,2.632,6.34,6.34,0,0,0,.652-2.842,7.134,7.134,0,0,0-.652-2.421m-6.985-1.722a7.9,7.9,0,0,0,2.631.569,6.079,6.079,0,0,0,2.632-.569,6.332,6.332,0,0,0-2.841-.653,7.127,7.127,0,0,0-2.421.653m8.8,0a7.892,7.892,0,0,0,2.631.569,6.077,6.077,0,0,0,2.631-.569,6.329,6.329,0,0,0-2.841-.653,7.123,7.123,0,0,0-2.421.653M402.671,375a7.894,7.894,0,0,0,2.156-1.613,6.073,6.073,0,0,0,1.3-2.359,6.32,6.32,0,0,0-2.356,1.716,7.135,7.135,0,0,0-1.1,2.255m6.307-6.875a7.874,7.874,0,0,0,2.154-1.613,6.088,6.088,0,0,0,1.3-2.36,6.34,6.34,0,0,0-2.358,1.717,7.141,7.141,0,0,0-1.095,2.255m-6.914-3.248a7.915,7.915,0,0,0,1.651,2.127,6.07,6.07,0,0,0,2.381,1.256,6.33,6.33,0,0,0-1.757-2.327,7.141,7.141,0,0,0-2.274-1.056m6.837,6.248a7.879,7.879,0,0,0,1.651,2.127,6.062,6.062,0,0,0,2.381,1.256,6.336,6.336,0,0,0-1.757-2.326,7.146,7.146,0,0,0-2.274-1.057m-4.376-8.007a7.908,7.908,0,0,0,.6,2.625,6.07,6.07,0,0,0,1.627,2.144,6.315,6.315,0,0,0-.609-2.851,7.145,7.145,0,0,0-1.615-1.919m3.784,8.333a7.893,7.893,0,0,0,.6,2.625,6.065,6.065,0,0,0,1.627,2.145,6.33,6.33,0,0,0-.609-2.852,7.158,7.158,0,0,0-1.615-1.918m-7.369,1.212a7.892,7.892,0,0,0,2.614-.643,6.07,6.07,0,0,0,2.116-1.664,6.339,6.339,0,0,0-2.84.659,7.142,7.142,0,0,0-1.89,1.648m8.492-3.864a7.892,7.892,0,0,0,2.613-.643,6.067,6.067,0,0,0,2.116-1.664,6.327,6.327,0,0,0-2.84.659,7.147,7.147,0,0,0-1.889,1.648m-4.612,7.544a7.883,7.883,0,0,0,1.474-2.253,6.066,6.066,0,0,0,.413-2.66,6.33,6.33,0,0,0-1.628,2.419,7.134,7.134,0,0,0-.258,2.494m3.575-8.617a7.9,7.9,0,0,0,1.474-2.253,6.068,6.068,0,0,0,.413-2.66,6.339,6.339,0,0,0-1.629,2.419,7.164,7.164,0,0,0-.258,2.495m-7.741-.676a7.892,7.892,0,0,0,2.279,1.434,6.058,6.058,0,0,0,2.666.366,6.332,6.332,0,0,0-2.446-1.585,7.138,7.138,0,0,0-2.5-.215m8.763,3.466a7.9,7.9,0,0,0,2.278,1.434,6.066,6.066,0,0,0,2.667.366,6.335,6.335,0,0,0-2.447-1.585,7.124,7.124,0,0,0-2.5-.215m-.872,4.071s-.274,1.221-.421,2.084a2.8,2.8,0,0,1-.631,1.369s-.717-1.726-.864-2.168a9.168,9.168,0,0,1-.251-.99,13.467,13.467,0,0,1-1.221,1.831c-.379.358-.926.97-.926.97s-.022-1.579-.022-2.063a9.075,9.075,0,0,1,.168-1.326s-1.58,1.242-1.916,1.431-.9.421-.9.421.8-1.81.99-2.252.526-1.032.526-1.032-1.284.253-2.043.358a7.176,7.176,0,0,1-1.537.021s1.474-1.473,1.958-1.852a8.944,8.944,0,0,1,1.116-.716s-1.727-.274-2.253-.421a4.879,4.879,0,0,1-1.2-.631s1.388-.547,2.041-.716,1.222-.295,1.222-.295a10.048,10.048,0,0,1-1.5-.737,13.525,13.525,0,0,1-1.39-1.41s1.937-.063,2.4,0a5.409,5.409,0,0,1,1.074.316,9.02,9.02,0,0,1-1.264-1.474c-.294-.547-.737-1.663-.737-1.663a20.7,20.7,0,0,1,2.358,1.1c.569.379,1.347.947,1.347.947s-.421-1.5-.569-2.105-.274-1.894-.274-1.894,1.831,1.683,1.958,1.894.695.989.695.989.211-1.136.421-1.873a12.133,12.133,0,0,1,.61-1.579,17.988,17.988,0,0,1,.8,1.916,13.456,13.456,0,0,1,.21,1.536,20.885,20.885,0,0,1,1.158-1.937,9.228,9.228,0,0,1,1.053-1.137,15.961,15.961,0,0,1,0,1.811,9.775,9.775,0,0,0-.043,1.179s.885-.568,1.516-.926a7.718,7.718,0,0,1,1.284-.569s-.757,1.473-1.094,2.232a9.928,9.928,0,0,1-.884,1.516,3.491,3.491,0,0,1,1.831-.653c1.054-.043,1.958-.084,1.958-.084a6.433,6.433,0,0,1-1.663,1.852,9.765,9.765,0,0,1-1.579.821,24.111,24.111,0,0,1,2.379.421c.758.211,1.663.548,1.663.548s-1.685.8-2.337.989-.758.148-.758.148a8.834,8.834,0,0,1,1.537,1.095,5.2,5.2,0,0,1,.822,1.074s-1.221.021-1.853-.021a2.921,2.921,0,0,1-1.095-.294s.526.862.821,1.452.7,1.3.7,1.3-1.558-.611-2.169-.863-1.116-.484-1.116-.484a6.247,6.247,0,0,1,.38,1.916,10.527,10.527,0,0,0-.021,1.39,21.556,21.556,0,0,1-1.643-1.621c-.4-.505-.821-1.137-.821-1.137" transform="translate(-163.468 -39.791)" fill="#473d36" fill-rule="evenodd"/>
    <path id="Trazado_3076" data-name="Trazado 3076" d="M486.1,449.983a.624.624,0,1,0,.625-.625.625.625,0,0,0-.625.625m.593-3.514a3.948,3.948,0,0,0-.286,1.322,3.057,3.057,0,0,0,.286,1.323,3.177,3.177,0,0,0,.328-1.428,3.592,3.592,0,0,0-.328-1.217m0,4.424a3.957,3.957,0,0,0-.286,1.324,3.058,3.058,0,0,0,.286,1.322,3.179,3.179,0,0,0,.328-1.428,3.6,3.6,0,0,0-.328-1.218m-3.512-.866a3.981,3.981,0,0,0,1.322.286,3.064,3.064,0,0,0,1.323-.286,3.182,3.182,0,0,0-1.428-.328,3.594,3.594,0,0,0-1.217.328m4.423,0a3.991,3.991,0,0,0,1.324.286,3.068,3.068,0,0,0,1.323-.286,3.185,3.185,0,0,0-1.429-.328,3.6,3.6,0,0,0-1.218.328m-3.336,2.661a3.983,3.983,0,0,0,1.084-.811,3.037,3.037,0,0,0,.652-1.186,3.186,3.186,0,0,0-1.185.863,3.586,3.586,0,0,0-.551,1.134m3.17-3.457a3.963,3.963,0,0,0,1.084-.811,3.047,3.047,0,0,0,.653-1.186,3.18,3.18,0,0,0-1.185.863,3.577,3.577,0,0,0-.551,1.134m-3.476-1.633a3.966,3.966,0,0,0,.83,1.069,3.054,3.054,0,0,0,1.2.632,3.183,3.183,0,0,0-.884-1.17,3.582,3.582,0,0,0-1.144-.531m3.438,3.141a3.963,3.963,0,0,0,.83,1.07,3.054,3.054,0,0,0,1.2.632,3.184,3.184,0,0,0-.884-1.17,3.6,3.6,0,0,0-1.143-.531m-2.2-4.026a3.955,3.955,0,0,0,.3,1.32,3.052,3.052,0,0,0,.818,1.078,3.176,3.176,0,0,0-.306-1.434,3.578,3.578,0,0,0-.811-.965m1.9,4.19a3.971,3.971,0,0,0,.3,1.319,3.055,3.055,0,0,0,.817,1.078,3.174,3.174,0,0,0-.307-1.433,3.589,3.589,0,0,0-.811-.964m-3.706.609a3.979,3.979,0,0,0,1.315-.323,3.058,3.058,0,0,0,1.064-.837,3.194,3.194,0,0,0-1.428.331,3.6,3.6,0,0,0-.951.829m4.27-1.943a3.982,3.982,0,0,0,1.315-.323,3.049,3.049,0,0,0,1.064-.837,3.182,3.182,0,0,0-1.428.332,3.592,3.592,0,0,0-.951.829m-2.318,3.793a3.964,3.964,0,0,0,.741-1.134,3.058,3.058,0,0,0,.208-1.337,3.175,3.175,0,0,0-.819,1.216,3.588,3.588,0,0,0-.13,1.255m1.8-4.333a3.982,3.982,0,0,0,.741-1.134,3.036,3.036,0,0,0,.207-1.337,3.188,3.188,0,0,0-.818,1.216,3.592,3.592,0,0,0-.129,1.255m-3.892-.34a3.965,3.965,0,0,0,1.145.721,3.049,3.049,0,0,0,1.341.184,3.184,3.184,0,0,0-1.23-.8,3.59,3.59,0,0,0-1.256-.108m4.406,1.743a3.957,3.957,0,0,0,1.145.721,3.053,3.053,0,0,0,1.34.184,3.186,3.186,0,0,0-1.23-.8,3.591,3.591,0,0,0-1.256-.108m-.439,2.047s-.137.613-.212,1.048a1.4,1.4,0,0,1-.317.688s-.36-.868-.434-1.09a4.6,4.6,0,0,1-.128-.5,6.717,6.717,0,0,1-.613.921c-.19.18-.466.487-.466.487s-.011-.793-.011-1.037a4.572,4.572,0,0,1,.084-.667s-.794.625-.963.72-.455.212-.455.212.4-.911.5-1.133.265-.519.265-.519-.646.126-1.027.18a3.631,3.631,0,0,1-.773.01s.741-.741.985-.932a4.589,4.589,0,0,1,.561-.36s-.869-.137-1.132-.211a2.429,2.429,0,0,1-.6-.317s.7-.275,1.026-.36.614-.148.614-.148a5.028,5.028,0,0,1-.751-.371,6.707,6.707,0,0,1-.7-.709s.974-.031,1.207,0a2.714,2.714,0,0,1,.539.159,4.553,4.553,0,0,1-.635-.741c-.148-.275-.371-.836-.371-.836a10.481,10.481,0,0,1,1.186.55c.286.19.678.477.678.477s-.213-.751-.286-1.059-.138-.953-.138-.953.921.847.985.953.349.5.349.5.106-.571.212-.942a6.144,6.144,0,0,1,.306-.793,8.9,8.9,0,0,1,.4.963,6.744,6.744,0,0,1,.106.773,10.338,10.338,0,0,1,.582-.973,4.626,4.626,0,0,1,.529-.571,7.941,7.941,0,0,1,0,.909,5.109,5.109,0,0,0-.022.593s.446-.286.762-.465a3.944,3.944,0,0,1,.646-.286s-.382.741-.551,1.123a4.993,4.993,0,0,1-.445.762,1.753,1.753,0,0,1,.921-.328c.53-.021.985-.042.985-.042a3.236,3.236,0,0,1-.837.931,4.878,4.878,0,0,1-.793.413,12.118,12.118,0,0,1,1.2.211c.382.106.836.276.836.276s-.847.4-1.175.5-.381.073-.381.073a4.407,4.407,0,0,1,.773.551,2.579,2.579,0,0,1,.413.539s-.614.01-.932-.011a1.466,1.466,0,0,1-.551-.148s.264.434.413.73.35.657.35.657-.783-.307-1.09-.434-.561-.243-.561-.243a3.118,3.118,0,0,1,.191.963,5.282,5.282,0,0,0-.011.7,10.959,10.959,0,0,1-.825-.815c-.2-.254-.413-.571-.413-.571" transform="translate(-213.474 -90.535)" fill="#473d36" fill-rule="evenodd"/>
    <path id="Trazado_3077" data-name="Trazado 3077" d="M436.33,493.341a.4.4,0,1,0,.4-.4.4.4,0,0,0-.4.4m.379-2.252a2.544,2.544,0,0,0-.183.847,1.959,1.959,0,0,0,.183.848,2.043,2.043,0,0,0,.21-.915,2.3,2.3,0,0,0-.21-.78m0,2.835a2.548,2.548,0,0,0-.183.848,1.959,1.959,0,0,0,.183.847,2.043,2.043,0,0,0,.21-.915,2.3,2.3,0,0,0-.21-.78m-2.25-.555a2.545,2.545,0,0,0,.847.183,1.951,1.951,0,0,0,.848-.183,2.035,2.035,0,0,0-.915-.21,2.283,2.283,0,0,0-.78.21m2.834,0a2.552,2.552,0,0,0,.848.183,1.952,1.952,0,0,0,.848-.183,2.036,2.036,0,0,0-.916-.21,2.29,2.29,0,0,0-.78.21m-2.137,1.706a2.551,2.551,0,0,0,.694-.52,1.958,1.958,0,0,0,.417-.759,2.04,2.04,0,0,0-.759.553,2.289,2.289,0,0,0-.352.727m2.031-2.215a2.554,2.554,0,0,0,.694-.52,1.955,1.955,0,0,0,.418-.761,2.046,2.046,0,0,0-.759.553,2.3,2.3,0,0,0-.353.727m-2.227-1.047a2.556,2.556,0,0,0,.531.685,1.948,1.948,0,0,0,.767.4,2.041,2.041,0,0,0-.566-.749,2.325,2.325,0,0,0-.733-.341m2.2,2.013a2.536,2.536,0,0,0,.532.685,1.953,1.953,0,0,0,.767.4,2.04,2.04,0,0,0-.567-.749,2.3,2.3,0,0,0-.733-.341m-1.409-2.58a2.53,2.53,0,0,0,.192.846,1.948,1.948,0,0,0,.523.69,2.035,2.035,0,0,0-.2-.918,2.306,2.306,0,0,0-.521-.618m1.218,2.684a2.523,2.523,0,0,0,.192.845,1.957,1.957,0,0,0,.524.691,2.046,2.046,0,0,0-.2-.919,2.3,2.3,0,0,0-.52-.618m-2.374.39a2.536,2.536,0,0,0,.842-.207,1.957,1.957,0,0,0,.682-.536,2.037,2.037,0,0,0-.915.212,2.306,2.306,0,0,0-.609.531m2.736-1.244a2.529,2.529,0,0,0,.842-.207,1.954,1.954,0,0,0,.682-.536,2.037,2.037,0,0,0-.915.212,2.3,2.3,0,0,0-.609.531m-1.486,2.43a2.552,2.552,0,0,0,.475-.726,1.964,1.964,0,0,0,.133-.856,2.043,2.043,0,0,0-.525.779,2.29,2.29,0,0,0-.083.8M437,492.732a2.557,2.557,0,0,0,.475-.726,1.968,1.968,0,0,0,.133-.857,2.038,2.038,0,0,0-.525.78,2.284,2.284,0,0,0-.082.8m-2.494-.218a2.529,2.529,0,0,0,.733.462,1.955,1.955,0,0,0,.859.118,2.036,2.036,0,0,0-.788-.511,2.3,2.3,0,0,0-.8-.069m2.823,1.117a2.544,2.544,0,0,0,.734.462,1.96,1.96,0,0,0,.859.118,2.043,2.043,0,0,0-.788-.511,2.316,2.316,0,0,0-.805-.069m-.281,1.311s-.088.394-.135.672a.9.9,0,0,1-.2.441s-.23-.556-.278-.7a2.947,2.947,0,0,1-.081-.318,4.23,4.23,0,0,1-.394.589c-.122.116-.3.312-.3.312s-.007-.509-.007-.665a2.9,2.9,0,0,1,.054-.427s-.509.4-.617.461a3.128,3.128,0,0,1-.292.135s.259-.583.319-.725.169-.333.169-.333-.414.082-.658.115a2.342,2.342,0,0,1-.5.007s.475-.474.631-.6a2.882,2.882,0,0,1,.36-.231s-.557-.088-.725-.136a1.573,1.573,0,0,1-.387-.2s.448-.176.658-.231.393-.094.393-.094a3.213,3.213,0,0,1-.481-.237,4.255,4.255,0,0,1-.448-.455s.625-.02.773,0a1.753,1.753,0,0,1,.346.1,2.893,2.893,0,0,1-.407-.475c-.1-.176-.238-.536-.238-.536a6.707,6.707,0,0,1,.759.353c.184.122.435.3.435.3s-.136-.481-.184-.678-.088-.61-.088-.61.59.543.631.61.224.319.224.319.068-.366.135-.6a3.991,3.991,0,0,1,.2-.509,5.672,5.672,0,0,1,.258.617,4.25,4.25,0,0,1,.068.5,6.733,6.733,0,0,1,.373-.624,2.99,2.99,0,0,1,.339-.367,5.137,5.137,0,0,1,0,.584,3.017,3.017,0,0,0-.014.38s.285-.183.489-.3a2.493,2.493,0,0,1,.413-.183s-.244.475-.353.719a3.125,3.125,0,0,1-.285.489,1.123,1.123,0,0,1,.591-.21l.63-.028a2.077,2.077,0,0,1-.535.6,3.137,3.137,0,0,1-.508.264s.521.068.765.135.537.177.537.177-.544.257-.754.318-.244.048-.244.048a2.834,2.834,0,0,1,.495.352,1.66,1.66,0,0,1,.264.346s-.393.007-.6-.006a.936.936,0,0,1-.353-.094s.169.278.264.467.224.421.224.421-.5-.2-.7-.278-.359-.156-.359-.156a2.012,2.012,0,0,1,.122.617,3.2,3.2,0,0,0-.006.448,7,7,0,0,1-.529-.522c-.129-.163-.265-.366-.265-.366" transform="translate(-184.401 -117.466)" fill="#473d36" fill-rule="evenodd"/>
    <path id="Trazado_3078" data-name="Trazado 3078" d="M401.99,298.4a.528.528,0,1,0,.528-.529.528.528,0,0,0-.528.529m.5-2.973a3.331,3.331,0,0,0-.241,1.12,2.57,2.57,0,0,0,.241,1.119,2.7,2.7,0,0,0,.278-1.209,3.061,3.061,0,0,0-.278-1.03m0,3.743a3.322,3.322,0,0,0-.241,1.119,2.568,2.568,0,0,0,.241,1.119,2.7,2.7,0,0,0,.278-1.208,3.056,3.056,0,0,0-.278-1.03m-2.971-.733a3.346,3.346,0,0,0,1.119.242,2.575,2.575,0,0,0,1.119-.242,2.688,2.688,0,0,0-1.208-.278,3.055,3.055,0,0,0-1.03.278m3.742,0a3.348,3.348,0,0,0,1.119.242,2.576,2.576,0,0,0,1.119-.242,2.688,2.688,0,0,0-1.208-.278,3.051,3.051,0,0,0-1.03.278m-2.821,2.252a3.368,3.368,0,0,0,.916-.686,2.567,2.567,0,0,0,.552-1,2.7,2.7,0,0,0-1,.729,3.049,3.049,0,0,0-.465.96m2.682-2.924a3.352,3.352,0,0,0,.916-.686,2.567,2.567,0,0,0,.551-1,2.686,2.686,0,0,0-1,.73,3.032,3.032,0,0,0-.466.959m-2.94-1.381a3.365,3.365,0,0,0,.7.9,2.589,2.589,0,0,0,1.012.535,2.688,2.688,0,0,0-.747-.99,3.025,3.025,0,0,0-.967-.449m2.907,2.658a3.365,3.365,0,0,0,.7.9,2.582,2.582,0,0,0,1.012.535,2.686,2.686,0,0,0-.747-.99,3.021,3.021,0,0,0-.967-.449m-1.861-3.406a3.349,3.349,0,0,0,.254,1.116,2.58,2.58,0,0,0,.692.912,2.694,2.694,0,0,0-.258-1.213,3.048,3.048,0,0,0-.687-.815m1.608,3.544a3.367,3.367,0,0,0,.254,1.116,2.584,2.584,0,0,0,.692.912,2.7,2.7,0,0,0-.259-1.212,3.034,3.034,0,0,0-.687-.816m-3.133.515a3.361,3.361,0,0,0,1.112-.273,2.567,2.567,0,0,0,.9-.708,2.7,2.7,0,0,0-1.208.281,3.049,3.049,0,0,0-.8.7m3.612-1.643a3.354,3.354,0,0,0,1.111-.273,2.576,2.576,0,0,0,.9-.708,2.7,2.7,0,0,0-1.208.28,3.014,3.014,0,0,0-.8.7m-1.961,3.208a3.36,3.36,0,0,0,.627-.958,2.585,2.585,0,0,0,.175-1.131,2.69,2.69,0,0,0-.692,1.029,3.044,3.044,0,0,0-.11,1.06m1.52-3.665a3.348,3.348,0,0,0,.627-.958,2.575,2.575,0,0,0,.176-1.131,2.7,2.7,0,0,0-.693,1.029,3.045,3.045,0,0,0-.11,1.06m-3.291-.287a3.352,3.352,0,0,0,.97.61,2.573,2.573,0,0,0,1.134.156,2.689,2.689,0,0,0-1.04-.675,3.056,3.056,0,0,0-1.063-.091m3.726,1.474a3.347,3.347,0,0,0,.969.61,2.578,2.578,0,0,0,1.134.156,2.691,2.691,0,0,0-1.041-.674,3.046,3.046,0,0,0-1.062-.091m-.37,1.731s-.117.519-.179.887a1.187,1.187,0,0,1-.269.582s-.3-.734-.367-.922a3.914,3.914,0,0,1-.107-.421,5.79,5.79,0,0,1-.519.779c-.161.152-.394.411-.394.411s-.01-.671-.01-.878a3.837,3.837,0,0,1,.072-.563s-.672.528-.815.609-.386.179-.386.179.341-.77.421-.958.224-.439.224-.439-.546.108-.869.153a3.094,3.094,0,0,1-.653.008s.627-.627.833-.788a3.8,3.8,0,0,1,.474-.3s-.735-.117-.958-.179a2.062,2.062,0,0,1-.51-.268s.59-.233.868-.3.519-.126.519-.126a4.286,4.286,0,0,1-.635-.313,5.732,5.732,0,0,1-.591-.6s.824-.026,1.021,0a2.287,2.287,0,0,1,.456.134,3.894,3.894,0,0,1-.537-.627c-.125-.232-.313-.707-.313-.707a8.8,8.8,0,0,1,1,.465c.242.161.574.4.574.4s-.18-.635-.242-.9-.116-.805-.116-.805.779.716.833.805.295.42.295.42.09-.483.179-.8a5.091,5.091,0,0,1,.26-.671,7.6,7.6,0,0,1,.339.815,5.535,5.535,0,0,1,.09.653,8.794,8.794,0,0,1,.493-.823,3.9,3.9,0,0,1,.447-.483,6.81,6.81,0,0,1,0,.77,4,4,0,0,0-.018.5s.376-.241.645-.395a3.345,3.345,0,0,1,.545-.241s-.321.627-.465.949a4.218,4.218,0,0,1-.376.645,1.481,1.481,0,0,1,.779-.278c.447-.018.832-.036.832-.036a2.72,2.72,0,0,1-.707.788,4.155,4.155,0,0,1-.671.349s.689.089,1.011.178.708.233.708.233-.717.34-.994.421-.322.062-.322.062a3.8,3.8,0,0,1,.654.466,2.222,2.222,0,0,1,.349.457s-.519.009-.788-.009a1.251,1.251,0,0,1-.465-.125s.224.367.349.617.3.555.3.555-.662-.259-.922-.367-.475-.205-.475-.205a2.652,2.652,0,0,1,.161.815,4.551,4.551,0,0,0-.009.59,9.457,9.457,0,0,1-.7-.689c-.17-.215-.349-.484-.349-.484" transform="translate(-163.357)" fill="#473d36" fill-rule="evenodd"/>
    <path id="Trazado_3079" data-name="Trazado 3079" d="M426.071,306.371a.268.268,0,1,0,.269-.269.268.268,0,0,0-.269.269m.254-1.512a1.709,1.709,0,0,0-.122.569,1.308,1.308,0,0,0,.122.569,1.359,1.359,0,0,0,.142-.614,1.533,1.533,0,0,0-.142-.524m0,1.9a1.708,1.708,0,0,0-.122.569,1.309,1.309,0,0,0,.122.569,1.361,1.361,0,0,0,.142-.615,1.526,1.526,0,0,0-.142-.523m-1.51-.372a1.7,1.7,0,0,0,.569.123,1.328,1.328,0,0,0,.569-.123,1.37,1.37,0,0,0-.615-.142,1.532,1.532,0,0,0-.523.142m1.9,0a1.7,1.7,0,0,0,.569.123,1.32,1.32,0,0,0,.569-.123,1.367,1.367,0,0,0-.614-.142,1.529,1.529,0,0,0-.523.142m-1.435,1.144a1.713,1.713,0,0,0,.466-.349,1.309,1.309,0,0,0,.28-.511,1.372,1.372,0,0,0-.51.372,1.532,1.532,0,0,0-.236.487m1.364-1.486a1.7,1.7,0,0,0,.465-.349,1.3,1.3,0,0,0,.281-.51,1.374,1.374,0,0,0-.51.371,1.555,1.555,0,0,0-.236.488m-1.5-.7a1.711,1.711,0,0,0,.357.461,1.32,1.32,0,0,0,.515.272,1.366,1.366,0,0,0-.38-.5,1.547,1.547,0,0,0-.492-.229m1.479,1.352a1.692,1.692,0,0,0,.357.46,1.314,1.314,0,0,0,.515.272,1.372,1.372,0,0,0-.38-.5,1.552,1.552,0,0,0-.491-.228m-.947-1.732a1.7,1.7,0,0,0,.129.568,1.306,1.306,0,0,0,.353.463,1.368,1.368,0,0,0-.132-.616,1.542,1.542,0,0,0-.349-.415m.819,1.8a1.712,1.712,0,0,0,.128.568,1.317,1.317,0,0,0,.352.464,1.384,1.384,0,0,0-.131-.617,1.57,1.57,0,0,0-.349-.414m-1.594.262a1.693,1.693,0,0,0,.566-.139,1.316,1.316,0,0,0,.457-.36,1.371,1.371,0,0,0-.614.142,1.542,1.542,0,0,0-.409.357m1.837-.836a1.712,1.712,0,0,0,.565-.139,1.309,1.309,0,0,0,.457-.36,1.364,1.364,0,0,0-.614.143,1.536,1.536,0,0,0-.408.356m-1,1.632a1.714,1.714,0,0,0,.319-.487,1.315,1.315,0,0,0,.088-.575,1.374,1.374,0,0,0-.351.523,1.562,1.562,0,0,0-.056.54m.773-1.864a1.71,1.71,0,0,0,.319-.487,1.314,1.314,0,0,0,.089-.575,1.377,1.377,0,0,0-.352.522,1.546,1.546,0,0,0-.055.539m-1.675-.146a1.7,1.7,0,0,0,.493.31,1.314,1.314,0,0,0,.577.08,1.372,1.372,0,0,0-.529-.343,1.546,1.546,0,0,0-.541-.046m1.9.75a1.7,1.7,0,0,0,.493.309,1.3,1.3,0,0,0,.576.08,1.361,1.361,0,0,0-.529-.343,1.541,1.541,0,0,0-.54-.046m-.189.88s-.059.264-.091.451a.605.605,0,0,1-.137.3s-.154-.373-.186-.469a1.954,1.954,0,0,1-.054-.214,2.864,2.864,0,0,1-.264.4c-.082.078-.2.209-.2.209s0-.341,0-.446a1.946,1.946,0,0,1,.036-.286s-.342.268-.414.309a2.139,2.139,0,0,1-.2.092s.173-.391.214-.487.113-.223.113-.223-.278.054-.441.077a1.575,1.575,0,0,1-.333.005s.318-.319.423-.4a1.9,1.9,0,0,1,.241-.154s-.373-.06-.487-.092a1.05,1.05,0,0,1-.26-.136s.3-.118.442-.156.264-.064.264-.064a2.153,2.153,0,0,1-.323-.159,2.938,2.938,0,0,1-.3-.3s.418-.014.519,0a1.191,1.191,0,0,1,.232.068,1.961,1.961,0,0,1-.273-.319c-.064-.118-.16-.359-.16-.359a4.468,4.468,0,0,1,.51.236c.122.082.292.2.292.2s-.091-.323-.122-.455-.06-.409-.06-.409.4.364.423.409.15.214.15.214.045-.246.091-.406a2.691,2.691,0,0,1,.132-.34,3.851,3.851,0,0,1,.173.414,2.908,2.908,0,0,1,.046.333,4.45,4.45,0,0,1,.251-.419,2.005,2.005,0,0,1,.227-.246,3.475,3.475,0,0,1,0,.392,2.171,2.171,0,0,0-.009.255s.191-.123.328-.2a1.682,1.682,0,0,1,.278-.123s-.164.319-.237.483a2.1,2.1,0,0,1-.192.328.759.759,0,0,1,.4-.142l.423-.018a1.388,1.388,0,0,1-.359.4,2.114,2.114,0,0,1-.341.177,5.18,5.18,0,0,1,.514.092c.164.045.36.118.36.118s-.365.172-.5.214-.164.031-.164.031a1.933,1.933,0,0,1,.332.237,1.088,1.088,0,0,1,.177.232s-.263,0-.4,0a.636.636,0,0,1-.238-.063s.115.186.178.315.15.282.15.282-.336-.132-.468-.187-.242-.1-.242-.1a1.347,1.347,0,0,1,.082.415,2.444,2.444,0,0,0-.005.3,4.635,4.635,0,0,1-.354-.351c-.086-.109-.178-.245-.178-.245" transform="translate(-178.704 -5.848)" fill="#473d36" fill-rule="evenodd"/>
    <path id="Trazado_3080" data-name="Trazado 3080" d="M442.3,396.069a.243.243,0,1,0,.243-.244.243.243,0,0,0-.243.244m.231-1.372a1.527,1.527,0,0,0-.111.516,1.187,1.187,0,0,0,.111.517,1.241,1.241,0,0,0,.129-.558,1.428,1.428,0,0,0-.129-.475m0,1.727a1.528,1.528,0,0,0-.111.517,1.186,1.186,0,0,0,.111.516,1.239,1.239,0,0,0,.129-.558,1.432,1.432,0,0,0-.129-.475m-1.372-.338a1.563,1.563,0,0,0,.517.112,1.193,1.193,0,0,0,.516-.112,1.241,1.241,0,0,0-.558-.128,1.4,1.4,0,0,0-.476.128m1.728,0a1.562,1.562,0,0,0,.517.112,1.193,1.193,0,0,0,.516-.112,1.238,1.238,0,0,0-.558-.128,1.4,1.4,0,0,0-.475.128m-1.3,1.039a1.541,1.541,0,0,0,.423-.317,1.185,1.185,0,0,0,.255-.463,1.245,1.245,0,0,0-.463.337,1.39,1.39,0,0,0-.216.443m1.238-1.35a1.536,1.536,0,0,0,.423-.316A1.183,1.183,0,0,0,443.5,395a1.244,1.244,0,0,0-.463.336,1.4,1.4,0,0,0-.215.443m-1.357-.637a1.555,1.555,0,0,0,.324.417,1.187,1.187,0,0,0,.468.247,1.244,1.244,0,0,0-.345-.456,1.392,1.392,0,0,0-.447-.208m1.343,1.226a1.555,1.555,0,0,0,.324.418,1.2,1.2,0,0,0,.468.247,1.237,1.237,0,0,0-.346-.457,1.4,1.4,0,0,0-.446-.208m-.86-1.571a1.577,1.577,0,0,0,.117.515,1.207,1.207,0,0,0,.32.421,1.255,1.255,0,0,0-.12-.56,1.4,1.4,0,0,0-.317-.376m.743,1.635a1.533,1.533,0,0,0,.118.515,1.188,1.188,0,0,0,.318.421,1.24,1.24,0,0,0-.119-.56,1.409,1.409,0,0,0-.317-.377m-1.446.239a1.565,1.565,0,0,0,.513-.126,1.2,1.2,0,0,0,.416-.328,1.251,1.251,0,0,0-.558.13,1.409,1.409,0,0,0-.371.324m1.667-.759a1.553,1.553,0,0,0,.513-.126,1.19,1.19,0,0,0,.416-.327,1.242,1.242,0,0,0-.557.129,1.4,1.4,0,0,0-.371.324m-.905,1.48a1.563,1.563,0,0,0,.29-.442,1.193,1.193,0,0,0,.08-.522,1.239,1.239,0,0,0-.32.475,1.411,1.411,0,0,0-.051.489m.7-1.691a1.551,1.551,0,0,0,.288-.443,1.18,1.18,0,0,0,.082-.522,1.251,1.251,0,0,0-.32.475,1.42,1.42,0,0,0-.05.49m-1.52-.133a1.554,1.554,0,0,0,.447.281,1.193,1.193,0,0,0,.524.072,1.232,1.232,0,0,0-.48-.311,1.4,1.4,0,0,0-.491-.042m1.72.679a1.53,1.53,0,0,0,.447.282,1.179,1.179,0,0,0,.523.072,1.239,1.239,0,0,0-.481-.311,1.418,1.418,0,0,0-.49-.043m-.171.8s-.054.24-.082.41a.55.55,0,0,1-.125.268s-.14-.339-.17-.425a1.752,1.752,0,0,1-.05-.194,2.587,2.587,0,0,1-.239.359c-.075.07-.182.19-.182.19s0-.31,0-.4a1.782,1.782,0,0,1,.033-.26s-.31.244-.376.281a1.881,1.881,0,0,1-.177.082s.157-.355.194-.441.1-.2.1-.2-.252.049-.4.07a1.385,1.385,0,0,1-.3,0s.289-.289.384-.364a1.849,1.849,0,0,1,.219-.141s-.339-.053-.442-.082a.955.955,0,0,1-.235-.124s.272-.107.4-.14.24-.058.24-.058a1.989,1.989,0,0,1-.293-.144,2.618,2.618,0,0,1-.273-.277s.38-.013.471,0a1.01,1.01,0,0,1,.211.062,1.771,1.771,0,0,1-.248-.29c-.058-.106-.145-.326-.145-.326a3.938,3.938,0,0,1,.463.215c.111.074.264.186.264.186s-.083-.293-.112-.414-.053-.371-.053-.371.359.33.384.371.136.195.136.195.042-.223.084-.367a2.3,2.3,0,0,1,.12-.31,3.54,3.54,0,0,1,.157.376,2.575,2.575,0,0,1,.041.3,4.229,4.229,0,0,1,.228-.38,1.864,1.864,0,0,1,.206-.224,3.136,3.136,0,0,1,0,.356,1.862,1.862,0,0,0-.008.231s.174-.111.3-.181a1.554,1.554,0,0,1,.253-.112s-.149.29-.215.439a1.92,1.92,0,0,1-.174.3.685.685,0,0,1,.359-.128l.384-.016a1.273,1.273,0,0,1-.326.364,1.927,1.927,0,0,1-.31.161s.318.041.467.082.326.108.326.108-.331.157-.459.194-.149.028-.149.028a1.748,1.748,0,0,1,.3.215.983.983,0,0,1,.161.211s-.239,0-.363,0a.578.578,0,0,1-.215-.058s.1.169.161.286.136.256.136.256-.306-.12-.425-.17-.22-.094-.22-.094a1.217,1.217,0,0,1,.075.375,2.018,2.018,0,0,0,0,.273,4.189,4.189,0,0,1-.321-.318c-.079-.1-.162-.224-.162-.224" transform="translate(-188.526 -59.757)" fill="#473d36" fill-rule="evenodd"/>
    <path id="Trazado_3081" data-name="Trazado 3081" d="M457.119,364.336a.269.269,0,1,0,.269-.269.269.269,0,0,0-.269.269m.255-1.511a1.687,1.687,0,0,0-.122.569,1.325,1.325,0,0,0,.122.569,1.377,1.377,0,0,0,.142-.615,1.526,1.526,0,0,0-.142-.523m0,1.9a1.694,1.694,0,0,0-.122.569,1.319,1.319,0,0,0,.122.569,1.367,1.367,0,0,0,.142-.614,1.53,1.53,0,0,0-.142-.523m-1.51-.372a1.7,1.7,0,0,0,.569.122,1.305,1.305,0,0,0,.569-.122,1.36,1.36,0,0,0-.614-.141,1.54,1.54,0,0,0-.523.141m1.9,0a1.693,1.693,0,0,0,.569.122,1.309,1.309,0,0,0,.569-.122,1.366,1.366,0,0,0-.615-.141,1.536,1.536,0,0,0-.523.141m-1.435,1.145a1.72,1.72,0,0,0,.465-.349,1.3,1.3,0,0,0,.281-.511,1.362,1.362,0,0,0-.509.372,1.528,1.528,0,0,0-.237.488m1.363-1.487a1.707,1.707,0,0,0,.466-.348,1.307,1.307,0,0,0,.281-.51,1.36,1.36,0,0,0-.51.37,1.549,1.549,0,0,0-.238.488m-1.495-.7a1.73,1.73,0,0,0,.357.461,1.322,1.322,0,0,0,.515.271,1.365,1.365,0,0,0-.38-.5,1.572,1.572,0,0,0-.492-.229m1.478,1.352a1.711,1.711,0,0,0,.357.46,1.314,1.314,0,0,0,.515.272,1.382,1.382,0,0,0-.38-.5,1.538,1.538,0,0,0-.492-.228m-.946-1.732a1.691,1.691,0,0,0,.128.568,1.306,1.306,0,0,0,.352.463,1.374,1.374,0,0,0-.132-.617,1.551,1.551,0,0,0-.349-.415m.817,1.8a1.723,1.723,0,0,0,.128.568,1.321,1.321,0,0,0,.353.464,1.374,1.374,0,0,0-.132-.617,1.543,1.543,0,0,0-.349-.415m-1.593.262a1.7,1.7,0,0,0,.565-.139,1.308,1.308,0,0,0,.457-.36,1.365,1.365,0,0,0-.614.142,1.545,1.545,0,0,0-.409.357m1.836-.836a1.69,1.69,0,0,0,.565-.139,1.315,1.315,0,0,0,.458-.36,1.376,1.376,0,0,0-.615.143,1.536,1.536,0,0,0-.408.356m-1,1.632a1.7,1.7,0,0,0,.318-.487,1.323,1.323,0,0,0,.09-.576,1.371,1.371,0,0,0-.352.523,1.522,1.522,0,0,0-.056.54m.772-1.863a1.7,1.7,0,0,0,.318-.487,1.294,1.294,0,0,0,.09-.575,1.361,1.361,0,0,0-.352.523,1.536,1.536,0,0,0-.056.539m-1.674-.146a1.723,1.723,0,0,0,.493.31,1.319,1.319,0,0,0,.577.079,1.362,1.362,0,0,0-.529-.344,1.551,1.551,0,0,0-.54-.046m1.9.749a1.7,1.7,0,0,0,.492.31,1.306,1.306,0,0,0,.577.079,1.364,1.364,0,0,0-.529-.343,1.536,1.536,0,0,0-.539-.046m-.189.88s-.06.264-.092.451a.6.6,0,0,1-.136.3s-.154-.373-.186-.468a2.185,2.185,0,0,1-.054-.214,2.846,2.846,0,0,1-.264.4c-.081.077-.2.209-.2.209s-.005-.341-.005-.446a1.907,1.907,0,0,1,.037-.286s-.342.268-.414.309a2.109,2.109,0,0,1-.2.091s.173-.392.214-.487.114-.223.114-.223-.278.054-.441.078a1.584,1.584,0,0,1-.333,0s.319-.319.423-.4a2.038,2.038,0,0,1,.242-.155s-.374-.058-.488-.09a1.071,1.071,0,0,1-.259-.137s.3-.118.442-.154.264-.064.264-.064a2.155,2.155,0,0,1-.323-.16,2.9,2.9,0,0,1-.3-.3s.419-.014.519,0a1.186,1.186,0,0,1,.233.068,1.945,1.945,0,0,1-.274-.318c-.064-.118-.159-.36-.159-.36a4.49,4.49,0,0,1,.51.237c.123.082.292.206.292.206s-.092-.324-.124-.455-.059-.41-.059-.41.4.364.423.41.15.213.15.213.045-.245.091-.4a2.528,2.528,0,0,1,.131-.341,3.855,3.855,0,0,1,.174.414,2.737,2.737,0,0,1,.045.332,4.557,4.557,0,0,1,.251-.418,2,2,0,0,1,.226-.246,3.178,3.178,0,0,1,0,.391,2.1,2.1,0,0,0-.008.255s.191-.123.327-.2a1.626,1.626,0,0,1,.278-.123s-.165.318-.237.483a2.175,2.175,0,0,1-.191.328.751.751,0,0,1,.4-.141l.424-.019a1.4,1.4,0,0,1-.36.4,2.112,2.112,0,0,1-.341.177,5.18,5.18,0,0,1,.514.092c.164.046.36.118.36.118s-.365.174-.505.214-.164.031-.164.031a1.92,1.92,0,0,1,.332.236,1.154,1.154,0,0,1,.178.233s-.264.005-.4,0a.636.636,0,0,1-.237-.064s.114.186.177.314.15.282.15.282-.335-.131-.469-.186-.241-.105-.241-.105a1.331,1.331,0,0,1,.081.415,2.455,2.455,0,0,0,0,.3,4.745,4.745,0,0,1-.355-.351c-.086-.11-.177-.246-.177-.246" transform="translate(-197.329 -40.62)" fill="#473d36" fill-rule="evenodd"/>
    <path id="Trazado_3082" data-name="Trazado 3082" d="M367.563,313.034a.961.961,0,1,0,.962-.962.961.961,0,0,0-.962.962m.912-5.409a6.1,6.1,0,0,0-.439,2.037,4.7,4.7,0,0,0,.439,2.036,4.905,4.905,0,0,0,.505-2.2,5.523,5.523,0,0,0-.505-1.873m0,6.81a6.1,6.1,0,0,0-.439,2.037,4.7,4.7,0,0,0,.439,2.036,4.9,4.9,0,0,0,.505-2.2,5.522,5.522,0,0,0-.505-1.873m-5.405-1.332a6.126,6.126,0,0,0,2.036.439,4.693,4.693,0,0,0,2.037-.439,4.9,4.9,0,0,0-2.2-.505,5.522,5.522,0,0,0-1.874.505m6.81,0a6.125,6.125,0,0,0,2.036.439,4.693,4.693,0,0,0,2.037-.439,4.9,4.9,0,0,0-2.2-.505,5.522,5.522,0,0,0-1.874.505m-5.135,4.1a6.088,6.088,0,0,0,1.668-1.248,4.706,4.706,0,0,0,1-1.826,4.911,4.911,0,0,0-1.825,1.329,5.534,5.534,0,0,0-.847,1.745m4.88-5.321a6.088,6.088,0,0,0,1.668-1.248,4.69,4.69,0,0,0,1-1.825,4.893,4.893,0,0,0-1.824,1.329,5.512,5.512,0,0,0-.848,1.745m-5.349-2.514a6.092,6.092,0,0,0,1.276,1.646,4.7,4.7,0,0,0,1.843.972,4.9,4.9,0,0,0-1.359-1.8,5.522,5.522,0,0,0-1.76-.817m5.29,4.836a6.117,6.117,0,0,0,1.277,1.646,4.69,4.69,0,0,0,1.843.972,4.9,4.9,0,0,0-1.36-1.8,5.534,5.534,0,0,0-1.76-.817m-3.387-6.2a6.1,6.1,0,0,0,.463,2.032,4.684,4.684,0,0,0,1.259,1.659,4.9,4.9,0,0,0-.471-2.206,5.531,5.531,0,0,0-1.25-1.485m2.928,6.449a6.1,6.1,0,0,0,.463,2.031,4.7,4.7,0,0,0,1.258,1.66,4.9,4.9,0,0,0-.471-2.207,5.519,5.519,0,0,0-1.25-1.484m-5.7.938a6.106,6.106,0,0,0,2.023-.5,4.7,4.7,0,0,0,1.637-1.288,4.9,4.9,0,0,0-2.2.51,5.532,5.532,0,0,0-1.462,1.276m6.57-2.991a6.117,6.117,0,0,0,2.024-.5,4.694,4.694,0,0,0,1.637-1.288,4.9,4.9,0,0,0-2.2.51,5.539,5.539,0,0,0-1.463,1.276m-3.568,5.838a6.1,6.1,0,0,0,1.141-1.743,4.683,4.683,0,0,0,.319-2.059,4.9,4.9,0,0,0-1.259,1.872,5.539,5.539,0,0,0-.2,1.93m2.766-6.668a6.121,6.121,0,0,0,1.14-1.744,4.692,4.692,0,0,0,.32-2.058,4.9,4.9,0,0,0-1.26,1.872,5.53,5.53,0,0,0-.2,1.931m-5.99-.523a6.108,6.108,0,0,0,1.763,1.11,4.7,4.7,0,0,0,2.064.283,4.9,4.9,0,0,0-1.893-1.227,5.544,5.544,0,0,0-1.934-.165m6.781,2.682a6.1,6.1,0,0,0,1.763,1.11,4.689,4.689,0,0,0,2.063.283,4.882,4.882,0,0,0-1.893-1.226,5.513,5.513,0,0,0-1.933-.166m-.675,3.15s-.212.946-.325,1.613a2.163,2.163,0,0,1-.489,1.06s-.554-1.336-.668-1.678a7.154,7.154,0,0,1-.195-.765,10.4,10.4,0,0,1-.945,1.417c-.294.277-.717.75-.717.75s-.016-1.222-.016-1.6a7.031,7.031,0,0,1,.13-1.026s-1.222.961-1.483,1.107-.7.326-.7.326.619-1.4.766-1.743.407-.8.407-.8-.994.2-1.581.277a5.591,5.591,0,0,1-1.189.017s1.141-1.141,1.516-1.434a6.966,6.966,0,0,1,.863-.554s-1.337-.212-1.744-.325a3.8,3.8,0,0,1-.929-.489s1.076-.423,1.58-.554.945-.228.945-.228a7.791,7.791,0,0,1-1.157-.571,10.385,10.385,0,0,1-1.076-1.092s1.5-.049,1.857,0a4.171,4.171,0,0,1,.831.245,7,7,0,0,1-.978-1.14c-.228-.424-.57-1.287-.57-1.287a16.223,16.223,0,0,1,1.825.847c.439.293,1.042.733,1.042.733s-.326-1.157-.44-1.629-.211-1.466-.211-1.466,1.417,1.3,1.515,1.466.538.765.538.765.163-.88.326-1.45a9.523,9.523,0,0,1,.472-1.221,13.758,13.758,0,0,1,.619,1.482,10.064,10.064,0,0,1,.163,1.189,16,16,0,0,1,.9-1.5,7.129,7.129,0,0,1,.815-.88,12.573,12.573,0,0,1,0,1.4,7.466,7.466,0,0,0-.033.913s.685-.441,1.173-.717a5.944,5.944,0,0,1,.994-.439s-.587,1.14-.848,1.727a7.7,7.7,0,0,1-.684,1.173,2.7,2.7,0,0,1,1.417-.5c.815-.033,1.515-.066,1.515-.066a4.963,4.963,0,0,1-1.287,1.434,7.564,7.564,0,0,1-1.222.635s1.255.162,1.841.325,1.287.424,1.287.424-1.3.619-1.808.765-.587.115-.587.115a6.786,6.786,0,0,1,1.19.847,4.029,4.029,0,0,1,.635.83s-.945.017-1.434-.016a2.262,2.262,0,0,1-.847-.228s.408.667.635,1.124.538,1.01.538,1.01-1.205-.473-1.677-.668-.864-.375-.864-.375a4.837,4.837,0,0,1,.293,1.483,8.071,8.071,0,0,0-.017,1.075,16.876,16.876,0,0,1-1.271-1.255c-.309-.391-.635-.88-.635-.88" transform="translate(-141.199 -7)" fill="#473d36" fill-rule="evenodd"/>
    <path id="Trazado_3083" data-name="Trazado 3083" d="M522.714,418.5a.961.961,0,1,0,.961-.961.961.961,0,0,0-.961.961m.912-5.409a6.107,6.107,0,0,0-.44,2.036,4.7,4.7,0,0,0,.44,2.037,4.9,4.9,0,0,0,.505-2.2,5.519,5.519,0,0,0-.505-1.873m0,6.809a6.113,6.113,0,0,0-.44,2.037,4.7,4.7,0,0,0,.44,2.036,4.9,4.9,0,0,0,.505-2.2,5.524,5.524,0,0,0-.505-1.874m-5.405-1.332a6.107,6.107,0,0,0,2.036.439,4.7,4.7,0,0,0,2.037-.439,4.906,4.906,0,0,0-2.2-.505,5.533,5.533,0,0,0-1.873.505m6.81,0a6.106,6.106,0,0,0,2.036.439,4.689,4.689,0,0,0,2.036-.439,4.9,4.9,0,0,0-2.2-.505,5.534,5.534,0,0,0-1.874.505m-5.136,4.1a6.088,6.088,0,0,0,1.668-1.248,4.69,4.69,0,0,0,1-1.825,4.9,4.9,0,0,0-1.824,1.329,5.523,5.523,0,0,0-.848,1.745m4.881-5.32a6.092,6.092,0,0,0,1.667-1.248,4.7,4.7,0,0,0,1-1.825,4.9,4.9,0,0,0-1.824,1.327,5.532,5.532,0,0,0-.847,1.746m-5.35-2.514a6.1,6.1,0,0,0,1.277,1.646,4.7,4.7,0,0,0,1.842.972,4.9,4.9,0,0,0-1.359-1.8,5.531,5.531,0,0,0-1.76-.817m5.291,4.836a6.111,6.111,0,0,0,1.277,1.646,4.689,4.689,0,0,0,1.842.972,4.9,4.9,0,0,0-1.359-1.8,5.55,5.55,0,0,0-1.76-.818m-3.387-6.2a6.1,6.1,0,0,0,.463,2.032,4.69,4.69,0,0,0,1.258,1.659,4.892,4.892,0,0,0-.471-2.206,5.519,5.519,0,0,0-1.25-1.485m2.928,6.449a6.11,6.11,0,0,0,.462,2.031,4.692,4.692,0,0,0,1.259,1.66,4.893,4.893,0,0,0-.471-2.207,5.523,5.523,0,0,0-1.25-1.484m-5.7.937a6.11,6.11,0,0,0,2.023-.5,4.709,4.709,0,0,0,1.637-1.288,4.911,4.911,0,0,0-2.2.51,5.52,5.52,0,0,0-1.462,1.276m6.57-2.991a6.1,6.1,0,0,0,2.023-.5,4.688,4.688,0,0,0,1.638-1.288,4.9,4.9,0,0,0-2.2.51,5.547,5.547,0,0,0-1.463,1.275m-3.568,5.838a6.089,6.089,0,0,0,1.141-1.744,4.69,4.69,0,0,0,.319-2.059,4.9,4.9,0,0,0-1.26,1.872,5.539,5.539,0,0,0-.2,1.93m2.767-6.668a6.121,6.121,0,0,0,1.14-1.744,4.7,4.7,0,0,0,.319-2.058,4.894,4.894,0,0,0-1.26,1.871,5.533,5.533,0,0,0-.2,1.931m-5.991-.523a6.122,6.122,0,0,0,1.763,1.11,4.693,4.693,0,0,0,2.064.283,4.893,4.893,0,0,0-1.893-1.227,5.517,5.517,0,0,0-1.934-.166m6.781,2.682a6.121,6.121,0,0,0,1.763,1.11,4.7,4.7,0,0,0,2.064.283,4.9,4.9,0,0,0-1.893-1.226,5.512,5.512,0,0,0-1.934-.166m-.675,3.15s-.212.945-.326,1.613a2.158,2.158,0,0,1-.489,1.059s-.554-1.336-.668-1.678a7.263,7.263,0,0,1-.2-.765,10.357,10.357,0,0,1-.945,1.416c-.293.277-.717.75-.717.75s-.015-1.222-.015-1.6a7.048,7.048,0,0,1,.13-1.027s-1.223.961-1.483,1.108-.7.326-.7.326.619-1.4.765-1.743.408-.8.408-.8-.994.2-1.581.277a5.562,5.562,0,0,1-1.189.017s1.14-1.141,1.515-1.434a6.937,6.937,0,0,1,.864-.554s-1.337-.212-1.743-.325a3.8,3.8,0,0,1-.929-.489s1.075-.423,1.58-.554.945-.228.945-.228a7.753,7.753,0,0,1-1.156-.571,10.3,10.3,0,0,1-1.076-1.092s1.5-.048,1.857,0a4.161,4.161,0,0,1,.831.245,6.94,6.94,0,0,1-.977-1.141c-.228-.423-.571-1.287-.571-1.287a16.121,16.121,0,0,1,1.825.848c.44.292,1.043.733,1.043.733s-.326-1.157-.44-1.629-.211-1.466-.211-1.466,1.417,1.3,1.515,1.466.537.765.537.765.162-.88.326-1.45a9.462,9.462,0,0,1,.472-1.221,13.911,13.911,0,0,1,.619,1.483,10.223,10.223,0,0,1,.163,1.188,15.965,15.965,0,0,1,.9-1.5,7.07,7.07,0,0,1,.814-.88,12.394,12.394,0,0,1,0,1.4,7.529,7.529,0,0,0-.033.912s.685-.439,1.174-.717a5.964,5.964,0,0,1,.994-.439s-.586,1.14-.847,1.727a7.7,7.7,0,0,1-.684,1.173,2.7,2.7,0,0,1,1.418-.505c.815-.032,1.515-.064,1.515-.064a4.984,4.984,0,0,1-1.286,1.433,7.512,7.512,0,0,1-1.223.635s1.256.162,1.841.325,1.288.425,1.288.425-1.3.619-1.809.765-.587.114-.587.114a6.837,6.837,0,0,1,1.189.847,3.975,3.975,0,0,1,.635.831s-.944.016-1.433-.016a2.25,2.25,0,0,1-.848-.227s.408.667.635,1.124.537,1.009.537,1.009-1.2-.472-1.677-.667-.864-.375-.864-.375a4.812,4.812,0,0,1,.293,1.483,8.151,8.151,0,0,0-.016,1.075,16.778,16.778,0,0,1-1.271-1.254c-.309-.391-.635-.88-.635-.88" transform="translate(-234.269 -70.267)" fill="#473d36" fill-rule="evenodd"/>
    <path id="Trazado_3084" data-name="Trazado 3084" d="M486.167,379.633a.488.488,0,1,0,.488-.488.488.488,0,0,0-.488.488m.463-2.747a3.078,3.078,0,0,0-.224,1.034,2.372,2.372,0,0,0,.224,1.034,2.481,2.481,0,0,0,.256-1.117,2.8,2.8,0,0,0-.256-.951m0,3.458a3.081,3.081,0,0,0-.224,1.034,2.377,2.377,0,0,0,.224,1.034,2.482,2.482,0,0,0,.256-1.116,2.807,2.807,0,0,0-.256-.952m-2.745-.677a3.079,3.079,0,0,0,1.034.224,2.372,2.372,0,0,0,1.034-.224,2.492,2.492,0,0,0-1.117-.256,2.807,2.807,0,0,0-.951.256m3.458,0a3.084,3.084,0,0,0,1.035.224,2.381,2.381,0,0,0,1.034-.224,2.49,2.49,0,0,0-1.117-.256,2.826,2.826,0,0,0-.952.256m-2.608,2.081a3.1,3.1,0,0,0,.848-.634,2.383,2.383,0,0,0,.51-.927,2.49,2.49,0,0,0-.926.675,2.815,2.815,0,0,0-.431.887m2.479-2.7a3.109,3.109,0,0,0,.847-.634,2.374,2.374,0,0,0,.51-.927,2.49,2.49,0,0,0-.926.675,2.819,2.819,0,0,0-.431.887m-2.717-1.277a3.115,3.115,0,0,0,.649.836,2.388,2.388,0,0,0,.935.493,2.5,2.5,0,0,0-.69-.914,2.808,2.808,0,0,0-.894-.415m2.686,2.456a3.1,3.1,0,0,0,.649.835,2.387,2.387,0,0,0,.936.494,2.485,2.485,0,0,0-.691-.915,2.812,2.812,0,0,0-.895-.415m-1.719-3.147a3.1,3.1,0,0,0,.234,1.031,2.379,2.379,0,0,0,.639.843,2.472,2.472,0,0,0-.239-1.12,2.807,2.807,0,0,0-.635-.754m1.487,3.275a3.094,3.094,0,0,0,.235,1.032,2.38,2.38,0,0,0,.639.842,2.5,2.5,0,0,0-.239-1.12,2.811,2.811,0,0,0-.635-.754m-2.9.476a3.089,3.089,0,0,0,1.028-.253,2.371,2.371,0,0,0,.831-.653,2.485,2.485,0,0,0-1.116.258,2.81,2.81,0,0,0-.742.648m3.337-1.518a3.125,3.125,0,0,0,1.028-.252,2.376,2.376,0,0,0,.831-.655,2.492,2.492,0,0,0-1.116.259,2.819,2.819,0,0,0-.743.648m-1.812,2.965a3.108,3.108,0,0,0,.579-.886,2.389,2.389,0,0,0,.162-1.045,2.485,2.485,0,0,0-.64.951,2.8,2.8,0,0,0-.1.98m1.405-3.387a3.114,3.114,0,0,0,.579-.886,2.372,2.372,0,0,0,.161-1.045,2.482,2.482,0,0,0-.639.951,2.8,2.8,0,0,0-.1.98m-3.043-.266a3.1,3.1,0,0,0,.9.564,2.381,2.381,0,0,0,1.048.144,2.491,2.491,0,0,0-.962-.624,2.808,2.808,0,0,0-.982-.084m3.445,1.362a3.074,3.074,0,0,0,.895.563,2.381,2.381,0,0,0,1.048.144,2.48,2.48,0,0,0-.962-.623,2.818,2.818,0,0,0-.981-.085m-.343,1.6s-.108.48-.166.819a1.1,1.1,0,0,1-.248.537s-.282-.678-.34-.852a3.736,3.736,0,0,1-.1-.389,5.251,5.251,0,0,1-.479.72c-.149.141-.365.381-.365.381s-.008-.621-.008-.81a3.564,3.564,0,0,1,.066-.521s-.621.488-.753.562a3.842,3.842,0,0,1-.356.165s.314-.711.389-.885.206-.406.206-.406-.5.1-.8.141a2.855,2.855,0,0,1-.6.009s.579-.579.769-.729a3.56,3.56,0,0,1,.439-.281s-.679-.108-.886-.166a1.929,1.929,0,0,1-.472-.248s.546-.215.8-.281.48-.116.48-.116a3.952,3.952,0,0,1-.588-.29,5.262,5.262,0,0,1-.545-.554s.76-.025.943,0a2.129,2.129,0,0,1,.422.124,3.546,3.546,0,0,1-.5-.579c-.116-.215-.29-.654-.29-.654a8.156,8.156,0,0,1,.927.431c.223.148.529.372.529.372s-.166-.588-.224-.827-.107-.745-.107-.745.719.662.769.745.273.388.273.388.083-.447.165-.736a4.948,4.948,0,0,1,.24-.62,6.858,6.858,0,0,1,.315.753,5.276,5.276,0,0,1,.082.6,8.413,8.413,0,0,1,.455-.761,3.654,3.654,0,0,1,.414-.447,6.287,6.287,0,0,1,0,.712,3.881,3.881,0,0,0-.016.463s.349-.223.6-.364a3.015,3.015,0,0,1,.505-.223s-.3.579-.43.877a3.93,3.93,0,0,1-.348.6,1.365,1.365,0,0,1,.72-.256c.414-.016.77-.033.77-.033a2.527,2.527,0,0,1-.653.728,3.816,3.816,0,0,1-.621.323s.637.083.935.166.654.215.654.215-.662.314-.919.389-.3.058-.3.058a3.478,3.478,0,0,1,.6.43,2.043,2.043,0,0,1,.322.422s-.479.008-.727-.008a1.145,1.145,0,0,1-.43-.116s.207.339.323.571.273.513.273.513-.612-.239-.852-.339-.439-.19-.439-.19a2.458,2.458,0,0,1,.149.753,3.98,3.98,0,0,0-.008.546,8.5,8.5,0,0,1-.647-.637c-.156-.2-.322-.447-.322-.447" transform="translate(-213.99 -48.894)" fill="#473d36" fill-rule="evenodd"/>
    <path id="Trazado_3085" data-name="Trazado 3085" d="M213.675,382.9c-4.672.062-5.681,12.31-5.619,15.908s1.263,15.213,5.808,15.213c4.167-.063,3.725-13,3.662-16.034s.126-15.157-3.851-15.087M153,379.614a44.993,44.993,0,0,0-.379,5.114c.063,1.641.315,4.545.315,4.545s-2.273-3.219-8.207-2.714-6.818,3.724-6.818,4.545.757,3.472,6.25,3.283a13.47,13.47,0,0,0,8.46-3.03,47.324,47.324,0,0,0-.126,5.24c.126,2.083.252,4.86.252,4.86a8.7,8.7,0,0,0-6.691-1.767c-4.1.568-7.892,2.083-8.334,7.133s5.108,7.146,9.029,7.007c8.9-.315,11.68-9.279,11.68-9.279h6.377s.126-15.781.062-19.38-.253-6.249-.253-6.249l11.427-.189a76.671,76.671,0,0,0-3.662,17.991c-.441,8.648.506,16.16,3.347,16.349s6.926-3.978,8.712-10.163a51.8,51.8,0,0,0,1.452-18.243s2.9.063,4.735.063a47.29,47.29,0,0,0,5.177-.5s-.5,6.943-.5,8.332-.126,3.03,1.579,3.03,2.4-1.452,2.841-2.273,2.778-14.864,11.238-15.024c9.216-.174,9.723,7.827,9.723,7.827l7.261.126s-1.831,10.605-1.894,14.645.378,10.416,2.588,10.416,3.662-5.492,3.915-6.881.884-4.166.884-4.166l3.472,2.462s-1,7.613-3.977,11.236c-3.22,3.914-5.238,4.5-8.586,4.545a5.133,5.133,0,0,1-5.367-4.8s-2.651,4.672-8.018,4.609c-12.5-.063-12-19.127-12-19.127s-4.23,6.565-7.2,6.5-4.1-3.03-4.1-3.03-4.987,16.476-15.783,16.917c-8.144.443-7.134-12.12-7.134-12.12l-3.345.063S160.263,418.627,143.28,419c-13.007.253-16.794-8.4-16.668-11.489-.063-7.575,10.291-10.1,10.291-10.1s-5.745-1.831-6.187-7.45,8.966-10.911,16.1-10.794a47.7,47.7,0,0,1,6.187.441" transform="translate(0 -50.091)" fill="#473d36" fill-rule="evenodd"/>
    <path id="Trazado_3086" data-name="Trazado 3086" d="M133.211,363.7h2.446v-.14h-.471v-2.483h.56c.531.022.744.464.744.936h.14v-2h-.14c0,.722-.339.936-1.017.928h-.287v-2.284h.8a1.2,1.2,0,0,1,1.194,1.2h.14v-1.341h-4.111v.141h.471v4.907h-.471Z" transform="translate(-3.96 -38.232)" fill="#473d36" fill-rule="evenodd"/>
    <path id="Trazado_3087" data-name="Trazado 3087" d="M144.275,363.7h4.1v-1.555h-.14c0,.723-.493,1.415-1.643,1.415h-.339v-4.907h.472v-.141h-2.446v.141h.471v4.907h-.471Z" transform="translate(-10.597 -38.232)" fill="#473d36" fill-rule="evenodd"/>
    <path id="Trazado_3088" data-name="Trazado 3088" d="M160.8,360.912a2.6,2.6,0,1,0-2.6,2.726,2.593,2.593,0,0,0,2.6-2.726m-3.566,0c0-1.975.088-2.586.965-2.586s.965.611.965,2.586-.088,2.586-.965,2.586-.965-.612-.965-2.586" transform="translate(-17.389 -38.033)" fill="#473d36" fill-rule="evenodd"/>
    <path id="Trazado_3089" data-name="Trazado 3089" d="M169.479,363.7h2.446v-.139h-.471v-2.484h.53c.465,0,.59.339.59.929v.781a.971.971,0,0,0,1.061,1c.472,0,.8-.089.98-.523l-.1-.074c-.059.14-.155.325-.317.325-.147,0-.214-.11-.214-.479v-1.09c0-.722-.759-.9-1.311-.935V361c.655-.074,1.363-.465,1.363-1.2,0-.891-.862-1.282-1.651-1.282h-2.91v.14h.472v4.907h-.472Zm1.975-5.046h.413c.5,0,.714.316.714,1.223,0,.729-.184,1.062-.8,1.062h-.324Z" transform="translate(-25.716 -38.233)" fill="#473d36" fill-rule="evenodd"/>
    <path id="Trazado_3090" data-name="Trazado 3090" d="M182.7,363.7h2.446v-.139h-.471v-4.907h.471v-.141H182.7v.141h.471v4.907H182.7Z" transform="translate(-33.647 -38.232)" fill="#473d36" fill-rule="evenodd"/>
    <path id="Trazado_3091" data-name="Trazado 3091" d="M193.4,358.318h-.14c0,.147-.044.265-.221.265-.206,0-.6-.4-1.26-.4a1.616,1.616,0,0,0-1.68,1.695c0,2.444,3,.993,3,2.553a1.127,1.127,0,0,1-1.215,1.065,1.775,1.775,0,0,1-1.562-1.585h-.141v1.592h.141a.25.25,0,0,1,.25-.266c.324,0,.575.4,1.356.4a1.775,1.775,0,0,0,1.908-1.893c0-2.43-3-1.072-3-2.511a.879.879,0,0,1,.906-.908,1.631,1.631,0,0,1,1.518,1.407h.14Z" transform="translate(-38.086 -38.033)" fill="#473d36" fill-rule="evenodd"/>
    <path id="Trazado_3092" data-name="Trazado 3092" d="M201.679,363.7h2.446v-.14h-.471v-4.907a1.391,1.391,0,0,1,1.4,1.459h.14v-1.6h-4.583v1.6h.14a1.391,1.391,0,0,1,1.4-1.459v4.907h-.471Z" transform="translate(-44.391 -38.232)" fill="#473d36" fill-rule="evenodd"/>
    <path id="Trazado_3093" data-name="Trazado 3093" d="M212.686,363.7h4.362v-1.555h-.14c-.141.833-.45,1.415-1.7,1.415h-.546v-2.483h.619c.627,0,.8.434.8.943h.139v-2.011h-.139c0,.509-.184.928-.767.928h-.649v-2.284h.649c1.106,0,1.371.552,1.437,1.2h.139v-1.341h-4.2v.141h.471v4.907h-.471Z" transform="translate(-51.635 -38.232)" fill="#473d36" fill-rule="evenodd"/>
    <path id="Trazado_3094" data-name="Trazado 3094" d="M224.784,363.7h2.447v-.139h-.472v-2.484h.53c.464,0,.59.339.59.929v.781a.97.97,0,0,0,1.061,1c.471,0,.8-.089.98-.523l-.1-.074c-.059.14-.154.325-.317.325-.146,0-.213-.11-.213-.479v-1.09c0-.722-.759-.9-1.312-.935V361c.656-.074,1.364-.465,1.364-1.2,0-.891-.863-1.282-1.651-1.282h-2.911v.14h.472v4.907h-.472Zm1.975-5.046h.413c.5,0,.715.316.715,1.223,0,.729-.184,1.062-.8,1.062h-.324Z" transform="translate(-58.892 -38.233)" fill="#473d36" fill-rule="evenodd"/>
    <path id="Trazado_3095" data-name="Trazado 3095" d="M238.771,355.344h.169l.958-.745c.177-.132.419-.265.419-.479,0-.25-.212-.28-.449-.28-.4,0-.508.17-.656.523ZM238,360.9h2.446v-.14h-.471v-4.907h.471v-.141H238v.141h.471v4.907H238Z" transform="translate(-66.822 -35.427)" fill="#473d36" fill-rule="evenodd"/>
    <path id="Trazado_3096" data-name="Trazado 3096" d="M247,361.862h-1.172l.567-1.695h.015Zm-2.254,1.841h1.12v-.14h-.1c-.2,0-.353-.052-.353-.25a1.1,1.1,0,0,1,.051-.324l.325-.988h1.267l.553,1.563h-.333v.14h2.152v-.14h-.28l-1.783-5.048h-.589l-1.526,4.576c-.088.265-.206.472-.434.472h-.066Z" transform="translate(-70.864 -38.232)" fill="#473d36" fill-rule="evenodd"/>
    <path id="Trazado_3097" data-name="Trazado 3097" d="M263.481,363.7h2.446v-.14h-.471v-2.336l.972-2.093c.147-.316.265-.479.5-.479h.059v-.141H265.8v.141h.088c.2,0,.353.059.353.258a1.328,1.328,0,0,1-.11.486l-.745,1.607-1.105-2.35h.317v-.141h-2.2v.141h.272l1.282,2.734v2.173h-.471Z" transform="translate(-81.456 -38.232)" fill="#473d36" fill-rule="evenodd"/>
    <path id="Trazado_3098" data-name="Trazado 3098" d="M280.114,358.658h.471V362.4c0,.457.273.774.273,1.142,0,.383-.221.546-.45.546-.146,0-.265-.037-.265-.1,0-.11.354-.088.354-.531a.449.449,0,0,0-.471-.441.484.484,0,0,0-.487.5c0,.531.5.707.988.707a1.409,1.409,0,0,0,1.562-1.6v-3.971h.471v-.14h-2.446Z" transform="translate(-91.738 -38.233)" fill="#473d36" fill-rule="evenodd"/>
    <path id="Trazado_3099" data-name="Trazado 3099" d="M290.078,361.862h-1.172l.568-1.695h.014Zm-2.256,1.841h1.121v-.14h-.1c-.2,0-.354-.052-.354-.25a1.128,1.128,0,0,1,.052-.324l.324-.988h1.268l.553,1.563h-.332v.14H292.5v-.14h-.281l-1.783-5.048h-.59l-1.525,4.576c-.089.265-.207.472-.435.472h-.067Z" transform="translate(-96.707 -38.232)" fill="#473d36" fill-rule="evenodd"/>
    <path id="Trazado_3100" data-name="Trazado 3100" d="M300.033,363.7h2.446v-.139h-.471v-2.484h.531c.464,0,.589.339.589.929v.781a.971.971,0,0,0,1.061,1c.471,0,.8-.089.98-.523l-.1-.074c-.059.14-.155.325-.317.325s-.214-.11-.214-.479v-1.09c0-.722-.759-.9-1.311-.935V361c.656-.074,1.362-.465,1.362-1.2,0-.891-.861-1.282-1.65-1.282h-2.91v.14h.472v4.907h-.472Zm1.974-5.046h.413c.5,0,.715.316.715,1.223,0,.729-.184,1.062-.8,1.062h-.324Z" transform="translate(-104.032 -38.233)" fill="#473d36" fill-rule="evenodd"/>
    <path id="Trazado_3101" data-name="Trazado 3101" d="M315.117,358.657h.294c1.253,0,1.444.965,1.444,2.461,0,1.084-.058,2.446-1.488,2.446h-.25Zm-1.975,5.047h2.527a2.546,2.546,0,0,0,2.778-2.616,2.481,2.481,0,0,0-2.675-2.572h-2.63v.141h.471v4.907h-.471Z" transform="translate(-111.895 -38.232)" fill="#473d36" fill-rule="evenodd"/>
    <path id="Trazado_3102" data-name="Trazado 3102" d="M327.393,363.7h2.446v-.139h-.471v-4.907h.471v-.141h-2.446v.141h.471v4.907h-.471Z" transform="translate(-120.444 -38.232)" fill="#473d36" fill-rule="evenodd"/>
    <path id="Trazado_3103" data-name="Trazado 3103" d="M334.107,363.7h1.363v-.14c-.42,0-.567-.052-.567-.523v-3.507h.014l2.874,4.17h.929v-4.561a.431.431,0,0,1,.485-.486v-.141H338v.141c.487,0,.539.294.539.486v3.1h-.015l-2.564-3.729h-1.864v.141h.192l.435.626v3.758c0,.465-.23.523-.612.523Z" transform="translate(-124.463 -38.232)" fill="#473d36" fill-rule="evenodd"/>
    <path id="Trazado_3104" data-name="Trazado 3104" d="M347.35,363.7h4.362v-1.555h-.14c-.14.833-.45,1.415-1.7,1.415h-.545v-2.483h.619c.627,0,.8.434.8.943h.14v-2.011h-.14c0,.509-.184.928-.766.928h-.648v-2.284h.648c1.106,0,1.37.552,1.437,1.2h.139v-1.341h-4.2v.141h.471v4.907h-.471Z" transform="translate(-132.416 -38.232)" fill="#473d36" fill-rule="evenodd"/>
    <path id="Trazado_3105" data-name="Trazado 3105" d="M359.446,363.7h2.447v-.139h-.472v-2.484h.53c.465,0,.59.339.59.929v.781a.971.971,0,0,0,1.062,1c.471,0,.8-.089.98-.523l-.1-.074c-.06.14-.154.325-.317.325-.147,0-.213-.11-.213-.479v-1.09c0-.722-.759-.9-1.312-.935V361c.656-.074,1.363-.465,1.363-1.2,0-.891-.862-1.282-1.651-1.282h-2.911v.14h.473v4.907h-.473Zm1.975-5.046h.413c.5,0,.715.316.715,1.223,0,.729-.185,1.062-.8,1.062h-.324Z" transform="translate(-139.672 -38.233)" fill="#473d36" fill-rule="evenodd"/>
    <path id="Trazado_3106" data-name="Trazado 3106" d="M373.434,355.344h.17l.957-.745c.178-.132.42-.265.42-.479,0-.25-.213-.28-.449-.28-.4,0-.508.17-.656.523Zm-.766,5.555h2.446v-.14h-.472v-4.907h.472v-.141h-2.446v.141h.471v4.907h-.471Z" transform="translate(-147.603 -35.427)" fill="#473d36" fill-rule="evenodd"/>
    <path id="Trazado_3107" data-name="Trazado 3107" d="M381.659,361.862h-1.172l.567-1.695h.015ZM379.4,363.7h1.12v-.14h-.1c-.2,0-.353-.052-.353-.25a1.128,1.128,0,0,1,.051-.324l.325-.988h1.268l.553,1.563h-.333v.14h2.152v-.14h-.28l-1.783-5.048h-.589l-1.526,4.576c-.088.265-.206.472-.434.472H379.4Z" transform="translate(-151.644 -38.232)" fill="#473d36" fill-rule="evenodd"/>
  </g>
</svg>
